<svg xmlns="http://www.w3.org/2000/svg" viewBox="0 0 79.83 8.64"><defs><style>.cls-1{fill:#153144;}.cls-2{fill:#006de9;}</style></defs><title>adaptone</title><g id="Calque_2" data-name="Calque 2"><g id="Calque_1-2" data-name="Calque 1"><path class="cls-1" d="M5.67,7.33H2.41m0,0L2,8.29a.45.45,0,0,1-.43.29H.23A.22.22,0,0,1,0,8.26L3.78.19A.24.24,0,0,1,4,.06H4.1a.25.25,0,0,1,.21.13L8.06,8.26a.22.22,0,0,1-.2.32H6.52c-.21,0-.31-.08-.42-.3l-.43-.95M5,5.7,4,3.72H4l-.9,2m0,0H5"/><path class="cls-1" d="M11.45.35a.22.22,0,0,1,.21-.23h2.93a4.2,4.2,0,1,1,0,8.4H11.66a.22.22,0,0,1-.21-.23Zm3,6.39a2.34,2.34,0,0,0,2.34-2.43,2.34,2.34,0,0,0-2.34-2.43H13.32V6.74Z"/><path class="cls-1" d="M23.89,7.33l-.43,1a.45.45,0,0,1-.43.29H21.71a.22.22,0,0,1-.21-.32L25.26.19a.24.24,0,0,1,.2-.13h.12a.25.25,0,0,1,.21.13l3.75,8.07a.22.22,0,0,1-.2.32H28c-.21,0-.31-.08-.42-.3l-.43-.95M26.43,5.7l-.91-2h0l-.9,2m0,0h1.82"/><path class="cls-1" d="M32.93.35a.23.23,0,0,1,.23-.23h2.89a2.68,2.68,0,1,1,0,5.35H34.8V8.29a.24.24,0,0,1-.23.23H33.16a.23.23,0,0,1-.23-.23Zm3,3.37a1,1,0,0,0,1-1,.93.93,0,0,0-1-.89H34.8V3.72Z"/><path class="cls-1" d="M43.47,1.88H41.76a.22.22,0,0,1-.23-.22V.35a.23.23,0,0,1,.23-.23h5.32a.23.23,0,0,1,.23.23V1.66a.22.22,0,0,1-.23.22H45.37V8.29a.24.24,0,0,1-.23.23H43.7a.24.24,0,0,1-.23-.23Z"/><path class="cls-1" d="M62.72.22A.23.23,0,0,1,63,0h.3L68,4.61h0V.35a.23.23,0,0,1,.23-.23h1.44a.24.24,0,0,1,.22.23V8.42a.23.23,0,0,1-.22.22h-.2a.39.39,0,0,1-.15-.06L64.63,3.81h0V8.29a.23.23,0,0,1-.23.23H63a.24.24,0,0,1-.23-.23Z"/><path class="cls-1" d="M74.41.35a.23.23,0,0,1,.23-.23h5a.23.23,0,0,1,.23.23V1.66a.22.22,0,0,1-.23.22H76.28V3.37H79a.23.23,0,0,1,.22.23V4.91a.22.22,0,0,1-.22.22H76.28V6.75H79.6a.23.23,0,0,1,.23.23V8.29a.23.23,0,0,1-.23.23h-5a.23.23,0,0,1-.23-.23Z"/><path class="cls-2" d="M50.58,3.53a1.78,1.78,0,0,1,.38.4,3.86,3.86,0,0,0,.51.69c.15.14.38.17.46.08a1.41,1.41,0,0,0,.33-.63c.1-.28.18-.58.32-.91a1.68,1.68,0,0,1,.36-.5,1,1,0,0,1,.78-.3,1,1,0,0,1,.73.44,2.62,2.62,0,0,1,.28.51,7.57,7.57,0,0,1,.29.93c.08.29.14.58.22.83s.16.32.27.32.21-.07.31-.24.25-.51.38-.8a2.17,2.17,0,0,1,.64-.88,1,1,0,0,1,1.22.17,5.81,5.81,0,0,1,.57.79.7.7,0,0,0,.22.23c0-.11,0-.22,0-.33a4.31,4.31,0,0,0-8.53-.91A1,1,0,0,1,50.58,3.53Z"/><path class="cls-2" d="M58.56,5.16a1.8,1.8,0,0,1-.39-.39,4.56,4.56,0,0,0-.51-.7c-.15-.14-.38-.17-.47-.08a1.51,1.51,0,0,0-.37.63c-.11.27-.2.57-.35.88a2.11,2.11,0,0,1-.32.48,1,1,0,0,1-.7.3.94.94,0,0,1-.7-.37,2.6,2.6,0,0,1-.29-.49,8.82,8.82,0,0,1-.35-.91c0-.16-.1-.32-.16-.48a1.57,1.57,0,0,1-.09-.23c-.11-.28-.42-.32-.6,0l0,.07,0,0,0,0-.2.4a2.24,2.24,0,0,1-.69.87A1,1,0,0,1,51.07,5a5.65,5.65,0,0,1-.56-.79A.81.81,0,0,0,50.29,4a3,3,0,0,0,0,.31,4.31,4.31,0,0,0,8.51.94A.84.84,0,0,1,58.56,5.16Z"/></g></g></svg>
