<svg xmlns="http://www.w3.org/2000/svg" viewBox="0 0 8.62 8.64"><defs><style>.cls-1{fill:#006de9;}</style></defs><title>O</title><g id="Calque_2" data-name="Calque 2"><g id="Calque_1-2" data-name="Calque 1"><path class="cls-1" d="M.32,3.53a1.78,1.78,0,0,1,.38.4,4.41,4.41,0,0,0,.51.69c.16.14.39.17.47.08A1.52,1.52,0,0,0,2,4.07a7.74,7.74,0,0,1,.32-.91,1.83,1.83,0,0,1,.35-.5,1,1,0,0,1,.78-.3,1,1,0,0,1,.74.44,2.62,2.62,0,0,1,.28.51,9.66,9.66,0,0,1,.28.93c.08.29.14.58.23.83s.15.32.27.32.21-.07.3-.24.25-.51.39-.8a2,2,0,0,1,.64-.88,1,1,0,0,1,1.21.17,6,6,0,0,1,.58.79.8.8,0,0,0,.21.23c0-.11,0-.22,0-.33A4.31,4.31,0,0,0,.1,3.42.91.91,0,0,1,.32,3.53Z"/><path class="cls-1" d="M8.3,5.16a2.39,2.39,0,0,1-.39-.39,4.56,4.56,0,0,0-.51-.7C7.25,3.93,7,3.9,6.93,4a1.51,1.51,0,0,0-.36.63c-.12.27-.21.57-.36.88A1.6,1.6,0,0,1,5.89,6a1,1,0,0,1-.69.3.91.91,0,0,1-.7-.37,2.7,2.7,0,0,1-.3-.49C4.06,5.1,4,4.8,3.86,4.51L3.69,4,3.6,3.8c-.1-.28-.42-.32-.6,0l0,.07L3,4s0,0,0,0-.13.27-.21.4A2.24,2.24,0,0,1,2,5.25,1,1,0,0,1,.81,5a8,8,0,0,1-.56-.79A.7.7,0,0,0,0,4a3,3,0,0,0,0,.31,4.31,4.31,0,0,0,8.52.94A.91.91,0,0,1,8.3,5.16Z"/></g></g></svg>