<svg version="1.0" xmlns="http://www.w3.org/2000/svg" width="96.000000pt" height="96.000000pt" viewBox="0 0 96.000000 96.000000" preserveAspectRatio="xMidYMid meet"><g transform="translate(0.000000,96.000000) scale(0.100000,-0.100000)" fill="#000" stroke="none"><path d="M328 941 c-145 -47 -269 -174 -312 -322 -21 -69 -21 -210 0 -280 44 -149 174 -280 323 -323 71 -21 211 -21 282 0 149 43 278 173 324 326 20 68 20 209 -1 279 -44 149 -174 280 -323 323 -75 22 -219 20 -293 -3z m267 -481 l-210 -210 -115 115 -114 114 28 29 27 30 87 -84 87 -84 180 180 180 180 30 -30 30 -30 -210 -210z"/></g></svg>
